<svg width="277" height="178" viewBox="0 0 277 178" fill="none" xmlns="http://www.w3.org/2000/svg">
<rect y="39" width="277" height="139" rx="4" fill="white"/>
<circle cx="138" cy="7" r="6" fill="#4847E0"/>
<rect x="8" y="47" width="261" height="123" rx="4" fill="#4847E0"/>
<path d="M80.8476 114.16C79.845 114.16 78.9916 113.995 78.2876 113.664C77.5943 113.323 77.0556 112.832 76.6716 112.192C76.2876 111.541 76.0743 110.752 76.0316 109.824C76.021 109.387 76.0156 108.917 76.0156 108.416C76.0156 107.915 76.021 107.435 76.0316 106.976C76.0743 106.059 76.2876 105.28 76.6716 104.64C77.0663 103.989 77.6156 103.493 78.3196 103.152C79.0236 102.811 79.8663 102.64 80.8476 102.64C81.5623 102.64 82.213 102.731 82.7996 102.912C83.3863 103.093 83.893 103.355 84.3196 103.696C84.7463 104.037 85.077 104.437 85.3116 104.896C85.5463 105.355 85.6743 105.867 85.6956 106.432C85.6956 106.528 85.6583 106.608 85.5836 106.672C85.5196 106.736 85.4396 106.768 85.3436 106.768H83.5196C83.3916 106.768 83.2903 106.736 83.2156 106.672C83.141 106.608 83.0823 106.501 83.0396 106.352C82.8796 105.723 82.613 105.291 82.2396 105.056C81.8663 104.821 81.4023 104.704 80.8476 104.704C80.1863 104.704 79.6636 104.885 79.2796 105.248C78.8956 105.611 78.6876 106.213 78.6556 107.056C78.6236 107.931 78.6236 108.827 78.6556 109.744C78.6876 110.587 78.8956 111.189 79.2796 111.552C79.6636 111.915 80.1863 112.096 80.8476 112.096C81.4023 112.096 81.8663 111.979 82.2396 111.744C82.6236 111.499 82.8903 111.067 83.0396 110.448C83.0823 110.288 83.141 110.181 83.2156 110.128C83.2903 110.064 83.3916 110.032 83.5196 110.032H85.3436C85.4396 110.032 85.5196 110.064 85.5836 110.128C85.6583 110.192 85.6956 110.272 85.6956 110.368C85.6743 110.933 85.5463 111.445 85.3116 111.904C85.077 112.363 84.7463 112.763 84.3196 113.104C83.893 113.445 83.3863 113.707 82.7996 113.888C82.213 114.069 81.5623 114.16 80.8476 114.16ZM92.7254 114.16C91.84 114.16 91.0987 114.016 90.5014 113.728C89.904 113.429 89.4454 113.008 89.1254 112.464C88.816 111.92 88.6454 111.285 88.6134 110.56C88.6027 110.347 88.5974 110.107 88.5974 109.84C88.5974 109.563 88.6027 109.323 88.6134 109.12C88.6454 108.384 88.8267 107.749 89.1574 107.216C89.488 106.672 89.952 106.256 90.5494 105.968C91.1467 105.669 91.872 105.52 92.7254 105.52C93.568 105.52 94.288 105.669 94.8854 105.968C95.4827 106.256 95.9467 106.672 96.2774 107.216C96.608 107.749 96.7894 108.384 96.8214 109.12C96.8427 109.323 96.8534 109.563 96.8534 109.84C96.8534 110.107 96.8427 110.347 96.8214 110.56C96.7894 111.285 96.6134 111.92 96.2934 112.464C95.984 113.008 95.5307 113.429 94.9334 113.728C94.336 114.016 93.6 114.16 92.7254 114.16ZM92.7254 112.4C93.248 112.4 93.6427 112.24 93.9094 111.92C94.176 111.589 94.32 111.109 94.3414 110.48C94.352 110.32 94.3574 110.107 94.3574 109.84C94.3574 109.573 94.352 109.36 94.3414 109.2C94.32 108.581 94.176 108.107 93.9094 107.776C93.6427 107.445 93.248 107.28 92.7254 107.28C92.2027 107.28 91.8027 107.445 91.5254 107.776C91.2587 108.107 91.1147 108.581 91.0934 109.2C91.0827 109.36 91.0774 109.573 91.0774 109.84C91.0774 110.107 91.0827 110.32 91.0934 110.48C91.1147 111.109 91.2587 111.589 91.5254 111.92C91.8027 112.24 92.2027 112.4 92.7254 112.4ZM100.511 114C100.404 114 100.313 113.963 100.239 113.888C100.164 113.813 100.127 113.717 100.127 113.6V106.08C100.127 105.963 100.164 105.867 100.239 105.792C100.313 105.717 100.404 105.68 100.511 105.68H101.999C102.105 105.68 102.196 105.717 102.271 105.792C102.356 105.867 102.399 105.963 102.399 106.08V106.624C102.612 106.325 102.905 106.069 103.279 105.856C103.663 105.643 104.116 105.531 104.639 105.52C105.876 105.499 106.724 105.968 107.183 106.928C107.428 106.512 107.78 106.176 108.239 105.92C108.708 105.653 109.22 105.52 109.775 105.52C110.329 105.52 110.831 105.648 111.279 105.904C111.727 106.149 112.079 106.533 112.335 107.056C112.601 107.568 112.735 108.229 112.735 109.04V113.6C112.735 113.717 112.697 113.813 112.623 113.888C112.548 113.963 112.457 114 112.351 114H110.767C110.66 114 110.569 113.963 110.495 113.888C110.42 113.813 110.383 113.717 110.383 113.6V109.168C110.383 108.731 110.319 108.389 110.191 108.144C110.063 107.888 109.892 107.707 109.679 107.6C109.476 107.493 109.247 107.44 108.991 107.44C108.767 107.44 108.548 107.493 108.335 107.6C108.132 107.707 107.961 107.888 107.823 108.144C107.695 108.389 107.631 108.731 107.631 109.168V113.6C107.631 113.717 107.593 113.813 107.519 113.888C107.444 113.963 107.348 114 107.231 114H105.663C105.545 114 105.449 113.963 105.375 113.888C105.3 113.813 105.263 113.717 105.263 113.6V109.168C105.263 108.731 105.199 108.389 105.071 108.144C104.943 107.888 104.772 107.707 104.559 107.6C104.356 107.493 104.132 107.44 103.887 107.44C103.663 107.44 103.444 107.499 103.231 107.616C103.017 107.723 102.841 107.899 102.703 108.144C102.575 108.389 102.511 108.725 102.511 109.152V113.6C102.511 113.717 102.473 113.813 102.399 113.888C102.324 113.963 102.233 114 102.127 114H100.511ZM116.658 114C116.551 114 116.46 113.963 116.386 113.888C116.311 113.813 116.274 113.717 116.274 113.6V106.08C116.274 105.963 116.311 105.867 116.386 105.792C116.46 105.717 116.551 105.68 116.658 105.68H118.258C118.375 105.68 118.471 105.717 118.546 105.792C118.62 105.867 118.658 105.963 118.658 106.08V113.6C118.658 113.717 118.62 113.813 118.546 113.888C118.471 113.963 118.375 114 118.258 114H116.658ZM116.61 104.4C116.503 104.4 116.412 104.363 116.338 104.288C116.263 104.213 116.226 104.117 116.226 104V102.72C116.226 102.603 116.263 102.507 116.338 102.432C116.412 102.347 116.503 102.304 116.61 102.304H118.29C118.407 102.304 118.503 102.347 118.578 102.432C118.663 102.507 118.706 102.603 118.706 102.72V104C118.706 104.117 118.663 104.213 118.578 104.288C118.503 104.363 118.407 104.4 118.29 104.4H116.61ZM123.07 114C122.963 114 122.873 113.963 122.798 113.888C122.723 113.813 122.686 113.717 122.686 113.6V106.08C122.686 105.963 122.723 105.867 122.798 105.792C122.873 105.717 122.963 105.68 123.07 105.68H124.638C124.755 105.68 124.851 105.717 124.926 105.792C125.001 105.867 125.038 105.963 125.038 106.08V106.704C125.315 106.363 125.673 106.08 126.11 105.856C126.547 105.632 127.081 105.52 127.71 105.52C128.339 105.52 128.889 105.664 129.358 105.952C129.838 106.229 130.211 106.64 130.478 107.184C130.755 107.717 130.894 108.368 130.894 109.136V113.6C130.894 113.717 130.851 113.813 130.766 113.888C130.691 113.963 130.601 114 130.494 114H128.798C128.681 114 128.585 113.963 128.51 113.888C128.435 113.813 128.398 113.717 128.398 113.6V109.232C128.398 108.667 128.259 108.229 127.982 107.92C127.715 107.6 127.321 107.44 126.798 107.44C126.297 107.44 125.897 107.6 125.598 107.92C125.299 108.229 125.15 108.667 125.15 109.232V113.6C125.15 113.717 125.113 113.813 125.038 113.888C124.963 113.963 124.873 114 124.766 114H123.07ZM138.315 117.52C137.526 117.52 136.87 117.413 136.347 117.2C135.824 116.997 135.408 116.747 135.099 116.448C134.8 116.16 134.587 115.872 134.459 115.584C134.331 115.296 134.262 115.072 134.251 114.912C134.24 114.795 134.278 114.699 134.363 114.624C134.448 114.549 134.544 114.512 134.651 114.512H136.363C136.459 114.512 136.539 114.533 136.603 114.576C136.678 114.629 136.736 114.715 136.779 114.832C136.832 114.96 136.907 115.093 137.003 115.232C137.099 115.381 137.243 115.504 137.435 115.6C137.638 115.696 137.904 115.744 138.235 115.744C138.608 115.744 138.918 115.691 139.163 115.584C139.408 115.477 139.59 115.296 139.707 115.04C139.835 114.784 139.899 114.437 139.899 114V112.928C139.643 113.205 139.318 113.435 138.923 113.616C138.539 113.797 138.064 113.888 137.499 113.888C136.944 113.888 136.454 113.803 136.027 113.632C135.611 113.451 135.264 113.2 134.987 112.88C134.71 112.549 134.496 112.155 134.347 111.696C134.198 111.237 134.112 110.72 134.091 110.144C134.08 109.856 134.08 109.573 134.091 109.296C134.112 108.741 134.198 108.235 134.347 107.776C134.496 107.317 134.71 106.923 134.987 106.592C135.264 106.251 135.611 105.989 136.027 105.808C136.454 105.616 136.944 105.52 137.499 105.52C138.086 105.52 138.587 105.632 139.003 105.856C139.419 106.08 139.76 106.357 140.027 106.688V106.08C140.027 105.973 140.064 105.883 140.139 105.808C140.214 105.723 140.304 105.68 140.411 105.68H141.979C142.086 105.68 142.176 105.723 142.251 105.808C142.336 105.883 142.379 105.973 142.379 106.08L142.395 113.776C142.395 114.576 142.24 115.253 141.931 115.808C141.622 116.363 141.163 116.784 140.555 117.072C139.958 117.371 139.211 117.52 138.315 117.52ZM138.235 112.016C138.619 112.016 138.928 111.931 139.163 111.76C139.408 111.579 139.59 111.355 139.707 111.088C139.824 110.811 139.888 110.523 139.899 110.224C139.91 110.107 139.915 109.941 139.915 109.728C139.915 109.504 139.91 109.333 139.899 109.216C139.888 108.917 139.824 108.635 139.707 108.368C139.59 108.091 139.408 107.867 139.163 107.696C138.928 107.525 138.619 107.44 138.235 107.44C137.83 107.44 137.51 107.531 137.275 107.712C137.04 107.883 136.87 108.112 136.763 108.4C136.656 108.688 136.592 109.003 136.571 109.344C136.56 109.6 136.56 109.851 136.571 110.096C136.592 110.448 136.656 110.768 136.763 111.056C136.87 111.344 137.04 111.579 137.275 111.76C137.51 111.931 137.83 112.016 138.235 112.016ZM155.35 114.16C154.326 114.16 153.468 114.011 152.774 113.712C152.092 113.413 151.574 113.024 151.222 112.544C150.87 112.064 150.684 111.552 150.662 111.008C150.662 110.923 150.694 110.848 150.758 110.784C150.822 110.709 150.902 110.672 150.998 110.672H152.71C152.849 110.672 152.956 110.704 153.03 110.768C153.105 110.821 153.174 110.891 153.238 110.976C153.313 111.157 153.43 111.333 153.59 111.504C153.761 111.675 153.99 111.819 154.278 111.936C154.566 112.043 154.924 112.096 155.35 112.096C156.044 112.096 156.561 111.984 156.902 111.76C157.254 111.536 157.43 111.232 157.43 110.848C157.43 110.571 157.334 110.347 157.142 110.176C156.961 110.005 156.668 109.851 156.262 109.712C155.868 109.573 155.34 109.424 154.678 109.264C153.878 109.093 153.196 108.875 152.63 108.608C152.076 108.331 151.654 107.979 151.366 107.552C151.089 107.115 150.95 106.576 150.95 105.936C150.95 105.296 151.126 104.731 151.478 104.24C151.83 103.739 152.326 103.349 152.966 103.072C153.606 102.784 154.369 102.64 155.254 102.64C155.969 102.64 156.598 102.736 157.142 102.928C157.697 103.12 158.156 103.371 158.518 103.68C158.892 103.989 159.174 104.32 159.366 104.672C159.558 105.024 159.66 105.365 159.67 105.696C159.67 105.781 159.638 105.861 159.574 105.936C159.51 106 159.43 106.032 159.334 106.032H157.542C157.436 106.032 157.34 106.011 157.254 105.968C157.169 105.925 157.1 105.851 157.046 105.744C156.982 105.467 156.79 105.227 156.47 105.024C156.161 104.811 155.756 104.704 155.254 104.704C154.732 104.704 154.316 104.8 154.006 104.992C153.708 105.184 153.558 105.477 153.558 105.872C153.558 106.128 153.633 106.347 153.782 106.528C153.942 106.699 154.204 106.853 154.566 106.992C154.94 107.12 155.43 107.264 156.038 107.424C156.977 107.616 157.74 107.845 158.326 108.112C158.913 108.379 159.345 108.725 159.622 109.152C159.9 109.568 160.038 110.096 160.038 110.736C160.038 111.451 159.836 112.064 159.43 112.576C159.036 113.088 158.486 113.483 157.782 113.76C157.089 114.027 156.278 114.16 155.35 114.16ZM166.988 114.16C166.103 114.16 165.361 114.016 164.764 113.728C164.167 113.429 163.708 113.008 163.388 112.464C163.079 111.92 162.908 111.285 162.876 110.56C162.865 110.347 162.86 110.107 162.86 109.84C162.86 109.563 162.865 109.323 162.876 109.12C162.908 108.384 163.089 107.749 163.42 107.216C163.751 106.672 164.215 106.256 164.812 105.968C165.409 105.669 166.135 105.52 166.988 105.52C167.831 105.52 168.551 105.669 169.148 105.968C169.745 106.256 170.209 106.672 170.54 107.216C170.871 107.749 171.052 108.384 171.084 109.12C171.105 109.323 171.116 109.563 171.116 109.84C171.116 110.107 171.105 110.347 171.084 110.56C171.052 111.285 170.876 111.92 170.556 112.464C170.247 113.008 169.793 113.429 169.196 113.728C168.599 114.016 167.863 114.16 166.988 114.16ZM166.988 112.4C167.511 112.4 167.905 112.24 168.172 111.92C168.439 111.589 168.583 111.109 168.604 110.48C168.615 110.32 168.62 110.107 168.62 109.84C168.62 109.573 168.615 109.36 168.604 109.2C168.583 108.581 168.439 108.107 168.172 107.776C167.905 107.445 167.511 107.28 166.988 107.28C166.465 107.28 166.065 107.445 165.788 107.776C165.521 108.107 165.377 108.581 165.356 109.2C165.345 109.36 165.34 109.573 165.34 109.84C165.34 110.107 165.345 110.32 165.356 110.48C165.377 111.109 165.521 111.589 165.788 111.92C166.065 112.24 166.465 112.4 166.988 112.4ZM178.197 114.16C177.312 114.16 176.571 114.016 175.973 113.728C175.376 113.429 174.917 113.008 174.597 112.464C174.288 111.92 174.117 111.285 174.085 110.56C174.075 110.347 174.069 110.107 174.069 109.84C174.069 109.563 174.075 109.323 174.085 109.12C174.117 108.384 174.299 107.749 174.629 107.216C174.96 106.672 175.424 106.256 176.021 105.968C176.619 105.669 177.344 105.52 178.197 105.52C179.04 105.52 179.76 105.669 180.357 105.968C180.955 106.256 181.419 106.672 181.749 107.216C182.08 107.749 182.261 108.384 182.293 109.12C182.315 109.323 182.325 109.563 182.325 109.84C182.325 110.107 182.315 110.347 182.293 110.56C182.261 111.285 182.085 111.92 181.765 112.464C181.456 113.008 181.003 113.429 180.405 113.728C179.808 114.016 179.072 114.16 178.197 114.16ZM178.197 112.4C178.72 112.4 179.115 112.24 179.381 111.92C179.648 111.589 179.792 111.109 179.813 110.48C179.824 110.32 179.829 110.107 179.829 109.84C179.829 109.573 179.824 109.36 179.813 109.2C179.792 108.581 179.648 108.107 179.381 107.776C179.115 107.445 178.72 107.28 178.197 107.28C177.675 107.28 177.275 107.445 176.997 107.776C176.731 108.107 176.587 108.581 176.565 109.2C176.555 109.36 176.549 109.573 176.549 109.84C176.549 110.107 176.555 110.32 176.565 110.48C176.587 111.109 176.731 111.589 176.997 111.92C177.275 112.24 177.675 112.4 178.197 112.4ZM185.983 114C185.876 114 185.785 113.963 185.711 113.888C185.636 113.813 185.599 113.717 185.599 113.6V106.08C185.599 105.963 185.636 105.867 185.711 105.792C185.785 105.717 185.876 105.68 185.983 105.68H187.551C187.668 105.68 187.764 105.717 187.839 105.792C187.913 105.867 187.951 105.963 187.951 106.08V106.704C188.228 106.363 188.585 106.08 189.023 105.856C189.46 105.632 189.993 105.52 190.623 105.52C191.252 105.52 191.801 105.664 192.271 105.952C192.751 106.229 193.124 106.64 193.391 107.184C193.668 107.717 193.807 108.368 193.807 109.136V113.6C193.807 113.717 193.764 113.813 193.679 113.888C193.604 113.963 193.513 114 193.407 114H191.711C191.593 114 191.497 113.963 191.423 113.888C191.348 113.813 191.311 113.717 191.311 113.6V109.232C191.311 108.667 191.172 108.229 190.895 107.92C190.628 107.6 190.233 107.44 189.711 107.44C189.209 107.44 188.809 107.6 188.511 107.92C188.212 108.229 188.063 108.667 188.063 109.232V113.6C188.063 113.717 188.025 113.813 187.951 113.888C187.876 113.963 187.785 114 187.679 114H185.983ZM197.772 110.688C197.654 110.688 197.558 110.651 197.484 110.576C197.409 110.501 197.372 110.405 197.372 110.288V103.2C197.372 103.083 197.409 102.987 197.484 102.912C197.558 102.837 197.654 102.8 197.772 102.8H199.324C199.441 102.8 199.537 102.837 199.612 102.912C199.686 102.987 199.724 103.083 199.724 103.2V110.288C199.724 110.405 199.686 110.501 199.612 110.576C199.537 110.651 199.441 110.688 199.324 110.688H197.772ZM197.676 114C197.569 114 197.478 113.963 197.404 113.888C197.329 113.813 197.292 113.717 197.292 113.6V111.888C197.292 111.771 197.329 111.675 197.404 111.6C197.478 111.525 197.569 111.488 197.676 111.488H199.404C199.521 111.488 199.617 111.525 199.692 111.6C199.766 111.675 199.804 111.771 199.804 111.888V113.6C199.804 113.717 199.766 113.813 199.692 113.888C199.617 113.963 199.521 114 199.404 114H197.676Z" fill="white"/>
<path d="M100 49C144.24 -11.0894 129.694 -16.1921 176 49" stroke="#4847E0" stroke-width="3"/>
</svg>
