<svg width="89" height="77" viewBox="0 0 89 77" fill="none" xmlns="http://www.w3.org/2000/svg">
<path d="M47.67 74.0829C47.3921 74.0811 47.1259 73.9709 46.928 73.7759C46.8321 73.6773 46.7561 73.5612 46.704 73.4339C46.6479 73.3091 46.6189 73.1738 46.619 73.0369C46.618 72.8978 46.6466 72.7601 46.703 72.6329C46.7265 72.5676 46.7603 72.5065 46.803 72.4519C46.8368 72.395 46.8786 72.3431 46.927 72.2979C47.1278 72.1085 47.3934 72.0029 47.6695 72.0029C47.9456 72.0029 48.2112 72.1085 48.412 72.2979C48.5582 72.4444 48.6577 72.6309 48.6979 72.8339C48.738 73.0369 48.7171 73.2473 48.6376 73.4384C48.5582 73.6295 48.4238 73.7927 48.2516 73.9075C48.0794 74.0222 47.877 74.0832 47.67 74.0829Z" fill="#DEE4F5"/>
<path d="M24.366 74.083C24.2283 74.0832 24.092 74.0563 23.9647 74.0038C23.8375 73.9513 23.7218 73.8743 23.6244 73.777C23.5269 73.6798 23.4496 73.5642 23.3969 73.4371C23.3442 73.3099 23.317 73.1736 23.317 73.036H23.359C23.3582 72.8281 23.4191 72.6247 23.534 72.4515C23.6489 72.2783 23.8126 72.1431 24.0044 72.063C24.1962 71.983 24.4075 71.9616 24.6114 72.0016C24.8153 72.0417 25.0028 72.1414 25.15 72.2881C25.2973 72.4348 25.3977 72.6218 25.4385 72.8256C25.4794 73.0294 25.4588 73.2408 25.3795 73.4328C25.3001 73.6249 25.1655 73.7892 24.9928 73.9047C24.82 74.0203 24.6169 74.082 24.409 74.082L24.366 74.083ZM6.92301 74.083C6.7848 74.0841 6.64772 74.058 6.51966 74.006C6.3916 73.954 6.27509 73.8771 6.17685 73.7799C6.0786 73.6827 6.00056 73.567 5.94722 73.4395C5.89387 73.312 5.86627 73.1752 5.86601 73.037H5.88701C5.88602 72.8289 5.94682 72.6252 6.0617 72.4517C6.17658 72.2782 6.34038 72.1427 6.53234 72.0624C6.72429 71.9821 6.93577 71.9606 7.13997 72.0005C7.34417 72.0405 7.53191 72.1402 7.6794 72.287C7.82688 72.4338 7.92748 72.6211 7.96844 72.8251C8.0094 73.0291 7.98888 73.2407 7.90948 73.433C7.83008 73.6253 7.69538 73.7898 7.52243 73.9055C7.34949 74.0212 7.14609 74.083 6.93801 74.083H6.92301ZM41.866 74.083C41.6593 74.0822 41.4575 74.0201 41.286 73.9047C41.1145 73.7893 40.981 73.6257 40.9025 73.4345C40.8239 73.2433 40.8038 73.0331 40.8446 72.8305C40.8854 72.6278 40.9853 72.4418 41.1318 72.2959C41.2782 72.15 41.4646 72.0508 41.6674 72.0108C41.8702 71.9707 42.0803 71.9917 42.2712 72.071C42.4621 72.1503 42.6252 72.2843 42.74 72.4562C42.8548 72.6282 42.916 72.8302 42.916 73.037C42.9152 73.3148 42.8042 73.581 42.6074 73.7771C42.4105 73.9732 42.1439 74.0832 41.866 74.083ZM36.047 74.083H36.026C35.8883 74.0834 35.7519 74.0566 35.6245 74.0042C35.4971 73.9519 35.3813 73.8749 35.2837 73.7778C35.1861 73.6806 35.1086 73.5652 35.0556 73.4381C35.0027 73.311 34.9753 73.1747 34.975 73.037H34.996C35.0078 72.7664 35.1236 72.5109 35.3192 72.3236C35.5148 72.1363 35.7752 72.0318 36.046 72.0318C36.3168 72.0318 36.5772 72.1363 36.7728 72.3236C36.9684 72.5109 37.0842 72.7664 37.096 73.037C37.0926 73.3132 36.9815 73.5771 36.7863 73.7725C36.5911 73.9679 36.3272 74.0793 36.051 74.083H36.047ZM30.22 74.083H30.199C30.0614 74.0832 29.9251 74.0564 29.7978 74.0039C29.6706 73.9515 29.5549 73.8746 29.4574 73.7774C29.3599 73.6803 29.2825 73.5649 29.2296 73.4379C29.1766 73.3108 29.1493 73.1746 29.149 73.037H29.17C29.169 72.8288 29.2298 72.6251 29.3448 72.4516C29.4597 72.2781 29.6236 72.1426 29.8156 72.0623C30.0076 71.982 30.2191 71.9606 30.4233 72.0006C30.6276 72.0407 30.8153 72.1405 30.9627 72.2874C31.1102 72.4343 31.2107 72.6216 31.2516 72.8257C31.2924 73.0298 31.2717 73.2414 31.1922 73.4337C31.1126 73.626 30.9778 73.7904 30.8047 73.906C30.6316 74.0216 30.4281 74.0832 30.22 74.083ZM18.58 74.083H18.566C18.4284 74.0832 18.2921 74.0564 18.1648 74.0039C18.0376 73.9515 17.9219 73.8746 17.8244 73.7774C17.7269 73.6803 17.6495 73.5649 17.5966 73.4379C17.5436 73.3108 17.5163 73.1746 17.516 73.037H17.537C17.536 72.8288 17.5968 72.6251 17.7118 72.4516C17.8267 72.2781 17.9906 72.1426 18.1826 72.0623C18.3746 71.982 18.5861 71.9606 18.7903 72.0006C18.9946 72.0407 19.1823 72.1405 19.3298 72.2874C19.4772 72.4343 19.5777 72.6216 19.6186 72.8257C19.6594 73.0298 19.6387 73.2414 19.5592 73.4337C19.4796 73.626 19.3448 73.7904 19.1717 73.906C18.9986 74.0216 18.7951 74.0832 18.587 74.083H18.58ZM12.753 74.083H12.744C12.4651 74.084 12.1971 73.9746 11.9986 73.7786C11.8001 73.5825 11.6874 73.3159 11.685 73.037H11.707C11.7062 72.8291 11.7671 72.6257 11.882 72.4525C11.9969 72.2793 12.1606 72.1441 12.3524 72.064C12.5442 71.984 12.7555 71.9626 12.9594 72.0026C13.1633 72.0427 13.3508 72.1424 13.498 72.2891C13.6453 72.4358 13.7457 72.6228 13.7865 72.8266C13.8274 73.0304 13.8068 73.2418 13.7275 73.4338C13.6481 73.6259 13.5135 73.7902 13.3408 73.9057C13.168 74.0213 12.9649 74.083 12.757 74.083H12.753Z" fill="#DEE4F5"/>
<path d="M1.09701 74.082C0.818837 74.0817 0.552085 73.9713 0.355012 73.775C0.256564 73.6791 0.178463 73.5643 0.125372 73.4375C0.0722816 73.3107 0.0452907 73.1745 0.0460117 73.037C0.0462003 72.8996 0.0735038 72.7636 0.126357 72.6368C0.17921 72.51 0.256573 72.3949 0.354012 72.298C0.40114 72.2463 0.455344 72.2015 0.515012 72.165C0.570797 72.1235 0.632039 72.0898 0.697012 72.065C0.76106 72.0365 0.828162 72.0153 0.897012 72.002C1.03154 71.9811 1.16849 71.9811 1.30301 72.002C1.37186 72.0153 1.43896 72.0365 1.50301 72.065C1.56729 72.0913 1.62835 72.1249 1.68501 72.165C1.74331 72.203 1.79729 72.2473 1.84601 72.297C1.94345 72.3939 2.02081 72.509 2.07367 72.6358C2.12652 72.7626 2.15382 72.8986 2.15401 73.036C2.15349 73.1741 2.12571 73.3108 2.07227 73.4382C2.01883 73.5656 1.94078 73.6812 1.84259 73.7784C1.7444 73.8755 1.628 73.9524 1.50006 74.0045C1.37212 74.0566 1.23515 74.0829 1.09701 74.082Z" fill="#DEE4F5"/>
<path d="M1.09601 68.553C0.889306 68.5522 0.687467 68.4901 0.51598 68.3747C0.344494 68.2593 0.211048 68.0957 0.132492 67.9045C0.0539353 67.7133 0.0337908 67.5031 0.0746016 67.3005C0.115412 67.0978 0.215348 66.9118 0.361792 66.7659C0.508236 66.62 0.694621 66.5208 0.897415 66.4808C1.10021 66.4407 1.31032 66.4617 1.50122 66.541C1.69212 66.6203 1.85524 66.7543 1.97 66.9263C2.08476 67.0982 2.14601 67.3003 2.14601 67.507C2.14522 67.7848 2.03421 68.051 1.83736 68.2471C1.6405 68.4432 1.37388 68.5532 1.09601 68.553ZM1.09601 63.031C0.889348 63.0302 0.687549 62.9682 0.516084 62.8528C0.344619 62.7374 0.211173 62.5739 0.132587 62.3827C0.0540012 62.1916 0.0337984 61.9814 0.0745281 61.7788C0.115258 61.5762 0.215095 61.3902 0.361439 61.2443C0.507782 61.0983 0.694074 60.999 0.896803 60.9589C1.09953 60.9187 1.30961 60.9395 1.50053 61.0187C1.69144 61.0978 1.85464 61.2317 1.96952 61.4035C2.0844 61.5753 2.14581 61.7773 2.14601 61.984C2.14522 62.2619 2.03424 62.5282 1.83742 62.7245C1.64059 62.9207 1.37397 63.031 1.09601 63.031ZM1.09601 57.522C0.818147 57.5222 0.551526 57.4122 0.35467 57.2161C0.157815 57.02 0.0468074 56.7538 0.0460129 56.476L0.0460129 56.462C0.0469466 56.2538 0.109615 56.0506 0.226087 55.8781C0.342558 55.7055 0.507597 55.5714 0.700313 55.4927C0.893029 55.4141 1.10476 55.3943 1.3087 55.436C1.51265 55.4777 1.69964 55.5789 1.84601 55.727C1.94371 55.8253 2.02062 55.9423 2.07216 56.071C2.1237 56.1996 2.14882 56.3374 2.14601 56.476C2.14522 56.7538 2.03421 57.02 1.83736 57.2161C1.6405 57.4122 1.37388 57.5222 1.09601 57.522ZM1.09601 51.979C0.889306 51.9782 0.687467 51.9161 0.51598 51.8007C0.344494 51.6853 0.211048 51.5217 0.132492 51.3305C0.0539353 51.1393 0.0337908 50.9291 0.0746016 50.7265C0.115412 50.5238 0.215348 50.3378 0.361792 50.1919C0.508236 50.046 0.694621 49.9468 0.897415 49.9068C1.10021 49.8667 1.31032 49.8877 1.50122 49.967C1.69212 50.0463 1.85524 50.1803 1.97 50.3522C2.08476 50.5242 2.14601 50.7262 2.14601 50.933C2.14522 51.2108 2.03421 51.477 1.83736 51.6731C1.6405 51.8692 1.37388 51.9792 1.09601 51.979ZM1.09601 46.457C0.889178 46.4562 0.687221 46.3941 0.51567 46.2785C0.34412 46.163 0.210677 45.9992 0.13221 45.8078C0.0537429 45.6164 0.0337746 45.4061 0.0748291 45.2033C0.115884 45.0006 0.216118 44.8146 0.362861 44.6689C0.509605 44.5231 0.69627 44.4241 0.899261 44.3844C1.10225 44.3447 1.31246 44.3661 1.5033 44.4458C1.69415 44.5256 1.85706 44.6601 1.97146 44.8324C2.08586 45.0048 2.1466 45.2071 2.14601 45.414C2.14443 45.6913 2.03307 45.9567 1.8363 46.1522C1.63953 46.3476 1.37336 46.4572 1.09601 46.457ZM1.09601 40.928C0.889306 40.9272 0.687467 40.8651 0.51598 40.7497C0.344494 40.6343 0.211048 40.4707 0.132492 40.2795C0.0539353 40.0883 0.0337908 39.8781 0.0746016 39.6755C0.115412 39.4728 0.215348 39.2868 0.361792 39.1409C0.508236 38.995 0.694621 38.8958 0.897415 38.8558C1.10021 38.8157 1.31032 38.8367 1.50122 38.916C1.69212 38.9953 1.85524 39.1293 1.97 39.3012C2.08476 39.4732 2.14601 39.6752 2.14601 39.882C2.14522 40.1598 2.03421 40.426 1.83736 40.6221C1.6405 40.8182 1.37388 40.9282 1.09601 40.928ZM1.09601 35.406C0.889306 35.4052 0.687467 35.3431 0.51598 35.2277C0.344494 35.1123 0.211048 34.9487 0.132492 34.7575C0.0539353 34.5663 0.0337908 34.3561 0.0746016 34.1535C0.115412 33.9508 0.215348 33.7648 0.361792 33.6189C0.508236 33.473 0.694621 33.3738 0.897415 33.3338C1.10021 33.2937 1.31032 33.3147 1.50122 33.394C1.69212 33.4733 1.85524 33.6073 1.97 33.7792C2.08476 33.9512 2.14601 34.1532 2.14601 34.36C2.14522 34.6378 2.03421 34.904 1.83736 35.1001C1.6405 35.2962 1.37388 35.4062 1.09601 35.406Z" fill="#DEE4F5"/>
<path d="M1.09701 29.8838C0.889546 29.8853 0.686336 29.8249 0.513313 29.7105C0.340291 29.596 0.205302 29.4325 0.125575 29.241C0.0458471 29.0494 0.0249962 28.8385 0.0656829 28.6351C0.10637 28.4316 0.206749 28.2449 0.35401 28.0988C0.401139 28.0471 0.455342 28.0023 0.51501 27.9658C0.573383 27.9358 0.634286 27.911 0.69701 27.8918L0.89701 27.8148C1.03092 27.787 1.1691 27.787 1.30301 27.8148L1.50301 27.8708L1.68501 27.9708C1.74311 28.0075 1.79709 28.0505 1.84601 28.0988C1.99321 28.2449 2.09356 28.4315 2.13428 28.6348C2.175 28.8382 2.15423 29.049 2.07463 29.2405C1.99503 29.432 1.8602 29.5955 1.68733 29.71C1.51446 29.8246 1.31139 29.8851 1.10401 29.8838H1.09701Z" fill="#DEE4F5"/>
<path d="M24.366 29.8837C24.2283 29.884 24.092 29.8571 23.9647 29.8046C23.8375 29.7521 23.7218 29.675 23.6244 29.5778C23.5269 29.4805 23.4496 29.365 23.3969 29.2379C23.3442 29.1107 23.317 28.9744 23.317 28.8367H23.359C23.3582 28.6289 23.4191 28.4255 23.534 28.2523C23.6489 28.0791 23.8126 27.9439 24.0044 27.8638C24.1962 27.7837 24.4075 27.7624 24.6114 27.8024C24.8153 27.8425 25.0028 27.9422 25.15 28.0889C25.2973 28.2355 25.3977 28.4226 25.4385 28.6264C25.4794 28.8302 25.4588 29.0415 25.3795 29.2336C25.3001 29.4257 25.1655 29.5899 24.9928 29.7055C24.82 29.8211 24.6169 29.8827 24.409 29.8827L24.366 29.8837ZM6.92301 29.8837C6.7848 29.8849 6.64772 29.8588 6.51966 29.8068C6.3916 29.7547 6.27509 29.6779 6.17685 29.5807C6.0786 29.4835 6.00056 29.3678 5.94722 29.2403C5.89387 29.1128 5.86627 28.976 5.86601 28.8377H5.88701C5.88602 28.6297 5.94682 28.426 6.0617 28.2525C6.17658 28.079 6.34038 27.9435 6.53234 27.8632C6.72429 27.7829 6.93577 27.7613 7.13997 27.8013C7.34417 27.8413 7.53191 27.941 7.6794 28.0878C7.82688 28.2346 7.92748 28.4218 7.96844 28.6259C8.0094 28.8299 7.98888 29.0414 7.90948 29.2338C7.83008 29.4261 7.69538 29.5906 7.52243 29.7063C7.34949 29.822 7.14609 29.8837 6.93801 29.8837H6.92301ZM41.866 29.8837C41.6593 29.8829 41.4575 29.8209 41.286 29.7055C41.1145 29.5901 40.981 29.4265 40.9025 29.2353C40.8239 29.0441 40.8038 28.8339 40.8446 28.6312C40.8854 28.4286 40.9853 28.2426 41.1318 28.0967C41.2782 27.9508 41.4646 27.8516 41.6674 27.8116C41.8702 27.7715 42.0803 27.7925 42.2712 27.8717C42.4621 27.951 42.6252 28.0851 42.74 28.257C42.8548 28.429 42.916 28.631 42.916 28.8377C42.9152 29.1156 42.8042 29.3818 42.6074 29.5779C42.4105 29.774 42.1439 29.884 41.866 29.8837ZM36.047 29.8837H36.026C35.8883 29.8841 35.7519 29.8574 35.6245 29.805C35.4971 29.7527 35.3813 29.6757 35.2837 29.5786C35.1861 29.4814 35.1086 29.366 35.0556 29.2389C35.0027 29.1118 34.9753 28.9754 34.975 28.8377H34.996C34.995 28.6297 35.0558 28.426 35.1707 28.2525C35.2856 28.079 35.4494 27.9435 35.6413 27.8632C35.8333 27.7829 36.0448 27.7613 36.249 27.8013C36.4532 27.8413 36.6409 27.941 36.7884 28.0878C36.9359 28.2346 37.0365 28.4218 37.0774 28.6259C37.1184 28.8299 37.0979 29.0414 37.0185 29.2338C36.9391 29.4261 36.8044 29.5906 36.6314 29.7063C36.4585 29.822 36.2551 29.8837 36.047 29.8837ZM30.22 29.8837H30.199C30.0614 29.884 29.9251 29.8572 29.7978 29.8047C29.6706 29.7523 29.5549 29.6753 29.4574 29.5782C29.3599 29.4811 29.2825 29.3657 29.2296 29.2386C29.1766 29.1116 29.1493 28.9754 29.149 28.8377H29.17C29.169 28.6296 29.2298 28.4259 29.3448 28.2524C29.4597 28.0789 29.6236 27.9434 29.8156 27.8631C30.0076 27.7828 30.2191 27.7613 30.4233 27.8014C30.6276 27.8415 30.8153 27.9413 30.9627 28.0882C31.1102 28.235 31.2107 28.4224 31.2516 28.6265C31.2924 28.8305 31.2717 29.0422 31.1922 29.2345C31.1126 29.4268 30.9778 29.5912 30.8047 29.7067C30.6316 29.8223 30.4281 29.8839 30.22 29.8837ZM18.58 29.8837H18.566C18.4284 29.884 18.2921 29.8572 18.1648 29.8047C18.0376 29.7523 17.9219 29.6753 17.8244 29.5782C17.7269 29.4811 17.6495 29.3657 17.5966 29.2386C17.5436 29.1116 17.5163 28.9754 17.516 28.8377H17.537C17.536 28.6296 17.5968 28.4259 17.7118 28.2524C17.8267 28.0789 17.9906 27.9434 18.1826 27.8631C18.3746 27.7828 18.5861 27.7613 18.7903 27.8014C18.9946 27.8415 19.1823 27.9413 19.3298 28.0882C19.4772 28.235 19.5777 28.4224 19.6186 28.6265C19.6594 28.8305 19.6387 29.0422 19.5592 29.2345C19.4796 29.4268 19.3448 29.5912 19.1717 29.7067C18.9986 29.8223 18.7951 29.8839 18.587 29.8837H18.58ZM12.753 29.8837H12.737C12.5993 29.8841 12.4628 29.8574 12.3353 29.805C12.2079 29.7527 12.0921 29.6757 11.9944 29.5786C11.8967 29.4815 11.8191 29.3661 11.766 29.2389C11.7129 29.1118 11.6854 28.9755 11.685 28.8377H11.707C11.7062 28.6299 11.7671 28.4265 11.882 28.2533C11.9969 28.0801 12.1606 27.9449 12.3524 27.8648C12.5442 27.7847 12.7555 27.7634 12.9594 27.8034C13.1633 27.8435 13.3508 27.9432 13.498 28.0899C13.6453 28.2365 13.7457 28.4236 13.7865 28.6274C13.8274 28.8312 13.8068 29.0425 13.7275 29.2346C13.6481 29.4267 13.5135 29.5909 13.3408 29.7065C13.168 29.8221 12.9649 29.8837 12.757 29.8837H12.753Z" fill="#DEE4F5"/>
<path d="M47.67 29.8838C47.4967 29.886 47.3256 29.8448 47.1723 29.764C47.019 29.6832 46.8883 29.5653 46.7922 29.4211C46.6961 29.2769 46.6376 29.1109 46.622 28.9383C46.6064 28.7657 46.6343 28.5919 46.703 28.4328C46.728 28.3682 46.7617 28.3073 46.803 28.2518C46.8384 28.1962 46.88 28.1449 46.927 28.0988C47.0507 27.9774 47.2021 27.8879 47.3682 27.838C47.5342 27.7882 47.7099 27.7795 47.88 27.8128L48.08 27.8688C48.1407 27.8979 48.1992 27.9313 48.255 27.9688C48.3146 28.005 48.3688 28.0495 48.416 28.1008C48.4659 28.1467 48.5105 28.198 48.549 28.2538C48.549 28.3168 48.619 28.3728 48.649 28.4348C48.6744 28.4994 48.6932 28.5664 48.705 28.6348C48.7395 28.8042 48.7313 28.9796 48.6812 29.145C48.6311 29.3105 48.5407 29.461 48.418 29.5828C48.3708 29.6325 48.3166 29.6749 48.257 29.7088C48.2028 29.7489 48.1441 29.7824 48.082 29.8088C47.9541 29.8651 47.8158 29.8937 47.676 29.8928L47.67 29.8838Z" fill="#DEE4F5"/>
<path d="M47.669 68.553C47.4623 68.5522 47.2605 68.4901 47.089 68.3747C46.9175 68.2593 46.784 68.0957 46.7055 67.9045C46.6269 67.7133 46.6068 67.5031 46.6476 67.3005C46.6884 67.0978 46.7883 66.9118 46.9348 66.7659C47.0812 66.62 47.2676 66.5208 47.4704 66.4808C47.6732 66.4407 47.8833 66.4617 48.0742 66.541C48.2651 66.6203 48.4282 66.7543 48.543 66.9263C48.6578 67.0982 48.719 67.3003 48.719 67.507C48.7182 67.7848 48.6072 68.051 48.4104 68.2471C48.2135 68.4432 47.9469 68.5532 47.669 68.553ZM47.669 63.031C47.4623 63.0302 47.2605 62.9682 47.0891 62.8528C46.9176 62.7374 46.7842 62.5739 46.7056 62.3827C46.627 62.1916 46.6068 61.9814 46.6475 61.7788C46.6883 61.5762 46.7881 61.3902 46.9344 61.2443C47.0808 61.0983 47.2671 60.999 47.4698 60.9589C47.6725 60.9187 47.8826 60.9395 48.0735 61.0187C48.2644 61.0978 48.4276 61.2317 48.5425 61.4035C48.6574 61.5753 48.7188 61.7773 48.719 61.984C48.7182 62.2619 48.6072 62.5282 48.4104 62.7245C48.2136 62.9207 47.947 63.031 47.669 63.031ZM47.669 57.516C47.3923 57.5157 47.1269 57.4064 46.9303 57.2117C46.7338 57.017 46.6219 56.7526 46.619 56.476V56.462C46.6214 56.1844 46.7328 55.9189 46.9293 55.7228C47.1257 55.5267 47.3914 55.4158 47.669 55.414C47.9483 55.414 48.2161 55.5249 48.4136 55.7224C48.6111 55.9198 48.722 56.1877 48.722 56.467C48.722 56.7462 48.6111 57.0141 48.4136 57.2115C48.2161 57.409 47.9483 57.52 47.669 57.52V57.516ZM47.669 51.979C47.4623 51.9782 47.2605 51.9161 47.089 51.8007C46.9175 51.6853 46.784 51.5217 46.7055 51.3305C46.6269 51.1393 46.6068 50.9291 46.6476 50.7265C46.6884 50.5238 46.7883 50.3378 46.9348 50.1919C47.0812 50.046 47.2676 49.9468 47.4704 49.9068C47.6732 49.8667 47.8833 49.8877 48.0742 49.967C48.2651 50.0463 48.4282 50.1803 48.543 50.3522C48.6578 50.5242 48.719 50.7262 48.719 50.933C48.7182 51.2108 48.6072 51.477 48.4104 51.6731C48.2135 51.8692 47.9469 51.9792 47.669 51.979ZM47.669 46.457C47.4622 46.4562 47.2602 46.3941 47.0887 46.2785C46.9171 46.163 46.7837 45.9992 46.7052 45.8078C46.6267 45.6164 46.6068 45.4061 46.6478 45.2033C46.6889 45.0006 46.7891 44.8146 46.9359 44.6689C47.0826 44.5231 47.2693 44.4241 47.4723 44.3844C47.6752 44.3447 47.8855 44.3661 48.0763 44.4458C48.2671 44.5256 48.4301 44.6601 48.5445 44.8324C48.6589 45.0048 48.7196 45.2071 48.719 45.414C48.7174 45.6913 48.6061 45.9567 48.4093 46.1522C48.2125 46.3476 47.9464 46.4572 47.669 46.457ZM47.669 40.928C47.4623 40.9272 47.2605 40.8651 47.089 40.7497C46.9175 40.6343 46.784 40.4707 46.7055 40.2795C46.6269 40.0883 46.6068 39.8781 46.6476 39.6755C46.6884 39.4728 46.7883 39.2868 46.9348 39.1409C47.0812 38.995 47.2676 38.8958 47.4704 38.8558C47.6732 38.8157 47.8833 38.8367 48.0742 38.916C48.2651 38.9953 48.4282 39.1293 48.543 39.3012C48.6578 39.4732 48.719 39.6752 48.719 39.882C48.7182 40.1598 48.6072 40.426 48.4104 40.6221C48.2135 40.8182 47.9469 40.9282 47.669 40.928ZM47.669 35.406C47.4623 35.4052 47.2605 35.3431 47.089 35.2277C46.9175 35.1123 46.784 34.9487 46.7055 34.7575C46.6269 34.5663 46.6068 34.3561 46.6476 34.1535C46.6884 33.9508 46.7883 33.7648 46.9348 33.6189C47.0812 33.473 47.2676 33.3738 47.4704 33.3338C47.6732 33.2937 47.8833 33.3147 48.0742 33.394C48.2651 33.4733 48.4282 33.6073 48.543 33.7792C48.6578 33.9512 48.719 34.1532 48.719 34.36C48.7182 34.6378 48.6072 34.904 48.4104 35.1001C48.2135 35.2962 47.9469 35.4062 47.669 35.406Z" fill="#DEE4F5"/>
<path d="M75.767 1.38086H11.854V62.4249H75.767V1.38086Z" fill="white"/>
<path d="M28.025 63.4349C25.532 63.3899 22.707 63.3349 19.916 63.2529L17.898 63.1979H11.855C11.6694 63.1979 11.4913 63.1241 11.36 62.9929C11.2288 62.8616 11.155 62.6835 11.155 62.4979C11.155 61.5049 11.113 60.4979 11.072 59.5209C10.981 57.9722 10.969 56.4198 11.036 54.8699C11.1663 53.6033 11.2201 52.33 11.197 51.0569C11.183 50.8429 11.165 50.6249 11.147 50.4139C11.111 49.9989 11.075 49.5689 11.07 49.1469C11.065 48.7249 11.07 48.2969 11.07 47.8829V47.8699C11.07 47.6612 11.07 47.4522 11.07 47.2429C11.07 44.9689 11.1 42.6569 11.129 40.4209C11.165 37.6519 11.202 34.7919 11.183 31.9799V28.1679C11.183 27.3399 11.234 26.4949 11.283 25.6769C11.31 25.2409 11.337 24.7899 11.356 24.3469C11.364 24.1602 11.3727 23.9739 11.382 23.7879C11.432 22.7229 11.482 21.6229 11.447 20.5329C11.431 20.0329 11.401 19.5329 11.373 19.0439C11.329 18.2829 11.283 17.4969 11.288 16.7199C11.288 15.2809 11.356 13.8199 11.423 12.4089C11.474 11.3209 11.523 10.1969 11.548 9.09087C11.595 6.59787 11.549 4.15887 11.488 1.45688C11.4888 1.35605 11.529 1.25953 11.6 1.18796C11.671 1.11639 11.7672 1.07544 11.868 1.07388C12.664 1.05488 13.535 1.04688 14.531 1.04688C15.42 1.04688 16.323 1.05387 17.197 1.06087C18.071 1.06788 18.972 1.07388 19.859 1.07388C22.476 1.07388 25.182 1.07388 27.85 1.14987C28.295 1.14987 28.745 1.14987 29.18 1.15788C29.615 1.16588 30.068 1.16588 30.511 1.16588C31.011 1.16588 31.444 1.16087 31.841 1.14987L35.834 1.02487C38.197 0.925875 40.588 0.869875 42.91 0.815875L43.825 0.794875C45.615 0.752875 47.435 0.728875 49.196 0.705875H49.204C50.074 0.694542 50.9447 0.682208 51.816 0.668875C52.074 0.668875 52.343 0.662875 52.616 0.662875C53.951 0.662875 55.305 0.711875 56.616 0.762875C57.66 0.796875 58.738 0.835875 59.8 0.846875C60.069 0.846875 60.351 0.851875 60.637 0.851875C62.137 0.851875 63.657 0.802875 65.13 0.751875C66.002 0.730875 66.903 0.701875 67.788 0.682875C68.488 0.667875 69.188 0.646875 69.874 0.622875C71.023 0.585875 72.208 0.546875 73.373 0.546875C74.253 0.546875 75.041 0.568875 75.781 0.613875H75.837C76.042 0.623133 76.2364 0.707939 76.3826 0.851955C76.5289 0.995971 76.6166 1.18901 76.629 1.39388C76.629 1.74988 76.616 2.10787 76.604 2.45487C76.594 2.73988 76.583 3.03488 76.58 3.32488L76.622 5.24687L76.698 9.10987C76.698 10.3749 76.698 11.6829 76.614 12.9589C76.6027 13.1329 76.591 13.3065 76.579 13.4799V13.5049C76.507 14.5749 76.433 15.6799 76.426 16.7789C76.426 17.4999 76.435 18.2349 76.444 18.9459C76.466 20.7669 76.489 22.6459 76.363 24.4459C76.3089 25.7386 76.3346 27.0334 76.44 28.3229C76.5055 29.6074 76.5055 30.8944 76.44 32.1789C76.326 34.7419 76.264 37.3059 76.257 39.7999C76.257 40.7049 76.269 41.6349 76.283 42.5329C76.308 44.1769 76.335 45.8759 76.257 47.4689C76.163 49.4169 76.219 51.5269 76.273 53.5689V53.5769C76.287 54.1149 76.302 54.6709 76.314 55.2179C76.335 55.8799 76.335 56.5399 76.335 57.1769C76.335 57.8139 76.335 58.4669 76.356 59.1149C76.395 60.3069 76.381 61.5239 76.367 62.7019V63.0129H68.246C67.797 63.0129 67.338 63.0129 66.894 63.0039C66.45 62.9949 65.994 62.9949 65.55 62.9949C65.05 62.9949 64.62 63.0009 64.232 63.0139C63.905 63.0139 63.576 63.0309 63.259 63.0479C62.942 63.0649 62.603 63.0829 62.265 63.0829H60.227L59.274 63.0479C58.244 63.0089 57.274 62.9709 56.295 62.9709H56.123L52.145 63.0759L44.175 63.3049C43.575 63.3049 42.968 63.3239 42.38 63.3409C41.792 63.3579 41.173 63.3779 40.563 63.3779C40.4243 63.3779 40.2857 63.3779 40.147 63.3779C39.414 63.3669 38.667 63.3409 37.947 63.3159C37.33 63.2949 36.693 63.2719 36.067 63.2599C35.705 63.2529 35.324 63.2489 34.935 63.2489C34.097 63.2489 33.205 63.2659 32.035 63.3029C31.558 63.3179 31.073 63.3369 30.604 63.3569C29.761 63.3909 28.888 63.4259 28.025 63.4349ZM11.896 61.8729L12.485 62.4589V62.3249C12.485 62.1819 12.491 62.0349 12.494 61.8839L12.053 61.8759L11.896 61.8729ZM39.616 61.7729H43.58L51.564 61.9119L55.556 61.9749C56.574 61.9749 57.581 61.9329 58.556 61.8919L59.444 61.8559C59.827 61.8409 60.252 61.8339 60.744 61.8339C61.177 61.8339 61.624 61.8389 62.057 61.8449C62.49 61.8509 62.957 61.8559 63.418 61.8559H67.382C68.853 61.8439 70.382 61.8409 71.864 61.8379C72.952 61.8379 74.075 61.8379 75.177 61.8279V54.2939C75.183 53.9465 75.1893 53.5992 75.196 53.2519C75.237 51.1519 75.279 48.9879 75.134 46.7289C75.064 45.4079 75.002 44.1199 75.015 42.8869L75.092 39.1639C75.092 36.7129 74.975 34.2409 74.833 31.4939C74.7415 30.2476 74.7415 28.9962 74.833 27.7499C74.984 26.5123 75.0262 25.2638 74.959 24.0189C74.8527 22.7552 74.8153 21.4866 74.847 20.2189C74.847 19.6009 74.888 18.9729 74.927 18.3659C74.966 17.7589 75.008 17.1149 75.008 16.4819V14.5819L74.896 12.6819C74.806 11.3359 74.814 10.0169 74.833 8.90287L74.952 5.13688L75.008 3.25487V2.18887C74.29 2.20987 73.562 2.21888 72.784 2.21888C70.964 2.21888 69.135 2.16488 67.366 2.11287H67.32C65.561 2.06187 63.743 2.01287 61.953 2.01287C61.197 2.01287 60.501 2.02187 59.824 2.04087C58.918 2.04087 57.998 2.10288 57.108 2.16288C56.689 2.19088 56.257 2.22088 55.832 2.24287C55.167 2.29188 54.491 2.31288 53.832 2.33288C53.504 2.34388 53.114 2.35487 52.719 2.35487C52.399 2.35487 52.11 2.34787 51.835 2.33288C51.229 2.33288 50.6233 2.33288 50.018 2.33288H50.009C49.4017 2.33288 48.7943 2.33288 48.187 2.33288C46.992 2.33288 45.419 2.32687 43.844 2.27688C42.894 2.24688 41.928 2.22988 40.994 2.21388C39.309 2.18488 37.568 2.15387 35.853 2.04688C34.147 1.91488 32.416 1.84687 30.709 1.84687C29.766 1.84687 28.809 1.86687 27.869 1.90787C23.269 2.09987 19.085 2.19288 15.069 2.19288C14.261 2.19288 13.449 2.19287 12.657 2.18087C12.668 1.93487 12.679 1.68087 12.69 1.39087L11.888 2.17488L12.661 2.18387C12.647 2.50321 12.6323 2.82288 12.617 3.14287V3.15987C12.527 5.08787 12.433 7.08087 12.517 9.05987C12.561 10.0719 12.634 11.0849 12.705 12.0659C12.814 13.5779 12.926 15.1409 12.931 16.6889C12.9149 17.5255 12.8481 18.3603 12.731 19.1889C12.678 19.6179 12.624 20.0619 12.585 20.4999C12.5429 21.1362 12.5429 21.7746 12.585 22.4109C12.585 22.9369 12.634 23.4719 12.685 23.9899V23.9979C12.695 24.1032 12.7047 24.2089 12.714 24.3149C12.8674 25.583 12.9516 26.8586 12.966 28.1359C12.99 28.9979 12.966 29.8759 12.94 30.7239C12.928 31.1239 12.917 31.5409 12.91 31.9499L12.81 35.7159V39.5289L12.754 47.1989V49.0989C12.7453 49.5251 12.7119 49.9505 12.654 50.3729C12.629 50.5839 12.604 50.7989 12.586 51.0099C12.5391 52.282 12.5725 53.5559 12.686 54.8239C12.758 56.3759 12.679 57.9529 12.601 59.4769C12.561 60.2629 12.52 61.0769 12.501 61.8769C14.581 61.9139 16.841 61.9319 19.613 61.9319C21.343 61.9319 23.096 61.9249 24.791 61.9189H24.816L27.779 61.9089L31.75 61.9499C33.055 61.9499 34.405 61.9499 35.707 61.9009L39.616 61.7729ZM75.004 1.35988V2.18887C75.255 2.18187 75.524 2.17287 75.804 2.16087L75.004 1.35988Z" fill="#DEE4F5"/>
<g opacity="0.5">
<path opacity="0.5" d="M69.99 6.90283H17.639V56.9028H69.99V6.90283Z" fill="#DEE4F5"/>
<path opacity="0.5" d="M30.848 57.5429C29.226 57.5249 27.58 57.4929 25.989 57.4609C23.605 57.4139 21.14 57.3609 18.725 57.3609C18.356 57.3609 17.991 57.3609 17.64 57.3609H17.632C17.5046 57.3605 17.3823 57.3107 17.291 57.2219C17.1978 57.1352 17.1428 57.015 17.138 56.8879C17.138 56.0639 17.111 55.2269 17.086 54.4179C17.047 53.1709 17.006 51.8819 17.061 50.6179C17.15 49.5889 17.188 48.5379 17.174 47.4939C17.174 47.2319 17.152 46.9649 17.131 46.7079C17.11 46.4509 17.089 46.1889 17.089 45.9319V44.4079C17.089 42.5079 17.109 40.5859 17.129 38.7239C17.153 36.4829 17.177 34.1669 17.166 31.9069C17.158 30.3759 17.212 28.8069 17.266 27.2929C17.4043 24.6647 17.3949 22.0309 17.238 19.4039L17.408 13.1289C17.447 11.2009 17.413 9.24086 17.381 7.34486L17.373 6.85586C17.373 6.7881 17.3994 6.72301 17.4467 6.67444C17.4939 6.62588 17.5583 6.59768 17.626 6.59586C18.277 6.58386 18.99 6.57686 19.804 6.57686C20.531 6.57686 21.269 6.57686 21.982 6.58586C22.695 6.59486 23.438 6.59586 24.167 6.59586C26.312 6.59586 28.529 6.59586 30.708 6.64486H33.979L37.256 6.56086C39.358 6.49286 41.499 6.45586 43.57 6.41186H43.797C45.152 6.38086 46.532 6.36886 47.867 6.35586C48.678 6.34886 49.514 6.34086 50.338 6.33086C50.581 6.33086 50.838 6.33086 51.097 6.33086C52.224 6.33086 53.372 6.35986 54.483 6.38886C55.272 6.40886 56.083 6.42986 56.883 6.43986C57.157 6.43986 57.446 6.44486 57.741 6.44486C58.941 6.44486 60.168 6.41586 61.351 6.38686C62.033 6.36586 62.738 6.34886 63.428 6.33786C63.984 6.32886 64.55 6.31586 65.096 6.30286C66.079 6.27986 67.096 6.25586 68.096 6.25586C68.777 6.25586 69.389 6.26686 69.969 6.28886H70.011C70.1569 6.29483 70.2948 6.35735 70.3954 6.46318C70.496 6.56901 70.5514 6.70985 70.55 6.85586V10.0129L70.592 13.1709C70.592 14.2469 70.592 15.2629 70.535 16.3159C70.474 17.4639 70.435 18.4889 70.416 19.4469C70.416 20.1469 70.424 20.8529 70.432 21.5389C70.447 22.9099 70.463 24.3279 70.416 25.7219C70.371 26.6879 70.411 27.6979 70.45 28.6739L70.458 28.8809C70.486 29.5899 70.477 30.2959 70.467 30.9809C70.467 31.3269 70.458 31.6809 70.458 32.0419C70.384 34.2419 70.345 36.2869 70.339 38.2829C70.339 39.0439 70.346 39.8219 70.355 40.5759C70.371 41.8989 70.388 43.2649 70.339 44.5579C70.279 46.1399 70.313 47.8329 70.346 49.4699V49.4759C70.3553 49.9465 70.3643 50.4179 70.373 50.8899C70.395 52.2309 70.389 53.5899 70.384 54.9109C70.384 55.6989 70.377 56.5109 70.384 57.3049H60.474C60.123 57.3049 59.761 57.3129 59.411 57.3199C59.061 57.3269 58.678 57.3359 58.311 57.3359C57.897 57.3359 57.532 57.3259 57.195 57.3049C56.329 57.2519 55.482 57.2449 54.84 57.2449C54.509 57.2449 54.181 57.2449 53.854 57.2449L50.597 57.3149L44.056 57.4679C43.409 57.4929 42.694 57.5049 41.871 57.5049C41.137 57.5049 40.386 57.4959 39.66 57.4859C38.934 57.4759 38.178 57.4669 37.439 57.4669C37.108 57.4549 36.747 57.4489 36.339 57.4489C35.973 57.4489 35.601 57.4489 35.239 57.4579C34.877 57.4669 34.51 57.4669 34.147 57.4669L30.848 57.5429ZM17.66 56.6239L18.052 57.0149C18.052 56.9249 18.052 56.8349 18.052 56.7449V56.6299H17.718L17.66 56.6239ZM41.786 56.5239C42.44 56.5239 43.05 56.5319 43.65 56.5489L50.191 56.6489L53.462 56.6899L56.662 56.6209C56.978 56.6079 57.328 56.6019 57.73 56.6019C58.088 56.6019 58.455 56.6019 58.81 56.6109C59.165 56.6199 59.548 56.6199 59.919 56.6199H63.168C65.061 56.5259 67.028 56.5199 68.93 56.5199H69.591V50.3199C69.591 49.6579 69.599 48.9739 69.606 48.3119C69.622 46.9489 69.638 45.5389 69.591 44.1119C69.524 42.0849 69.524 40.0549 69.591 37.9069C69.642 36.2699 69.559 34.5219 69.478 32.8309V32.8149C69.4593 32.4189 69.441 32.0245 69.423 31.6319C69.3675 30.6053 69.3675 29.5764 69.423 28.5499C69.5217 27.5307 69.5501 26.5059 69.508 25.4829C69.4173 24.109 69.404 22.7312 69.468 21.3559C69.487 20.6829 69.507 19.9869 69.507 19.2989C69.507 18.4569 69.468 17.5909 69.43 16.7539C69.375 15.5409 69.318 14.2879 69.38 13.0869L69.45 9.98686V7.44286C68.936 7.45686 68.399 7.46286 67.811 7.46286C67.085 7.46286 66.347 7.45386 65.633 7.44386C64.919 7.43386 64.178 7.42486 63.449 7.42486C62.509 7.42486 61.555 7.40886 60.633 7.39386C59.711 7.37886 58.761 7.36286 57.824 7.36286C57.501 7.36286 57.202 7.36286 56.908 7.36786C55.953 7.37986 54.98 7.42686 54.04 7.46786C52.94 7.52086 51.799 7.57486 50.678 7.57486H50.36C49.706 7.56886 48.992 7.56586 48.177 7.56586C47.451 7.56586 46.713 7.56586 45.999 7.56586H45.993C45.28 7.56586 44.543 7.56586 43.818 7.56586C41.695 7.56586 39.494 7.51186 37.277 7.40586L33.999 7.28686C33.674 7.27586 33.319 7.27086 32.911 7.27086C32.548 7.27086 32.178 7.27086 31.821 7.27886C31.464 7.28686 31.092 7.28686 30.728 7.28686C27.087 7.41486 23.711 7.47686 20.409 7.47686C19.664 7.47686 18.916 7.47686 18.185 7.46686C18.1917 7.27886 18.1983 7.09119 18.205 6.90386L17.645 7.46186L18.185 7.46686C18.175 7.73353 18.165 7.99786 18.155 8.25986V8.27686C18.093 9.89586 18.028 11.5559 18.087 13.1909C18.116 13.9799 18.163 14.7819 18.208 15.5579C18.283 16.8399 18.36 18.1639 18.36 19.4669C18.36 20.1439 18.294 20.8309 18.23 21.4949C18.195 21.8549 18.16 22.2269 18.135 22.5949C18.0849 23.6362 18.1079 24.6798 18.204 25.7179C18.3821 27.8035 18.4268 29.8985 18.338 31.9899C18.276 34.4609 18.27 36.9609 18.264 39.3789C18.264 41.0549 18.256 42.7859 18.233 44.4919V46.0559C18.233 46.3879 18.2 46.7299 18.169 47.0559C18.151 47.2379 18.133 47.4269 18.121 47.6129C18.0864 48.6546 18.1075 49.6974 18.184 50.7369C18.227 52.0239 18.177 53.3369 18.128 54.5979C18.102 55.2639 18.076 55.9519 18.063 56.6279C19.228 56.6439 20.518 56.6529 22.004 56.6529C23.45 56.6529 24.92 56.6449 26.341 56.6379C27.762 56.6309 29.234 56.6229 30.678 56.6229C31.401 56.6229 32.139 56.6319 32.853 56.6399C33.567 56.6479 34.306 56.6569 35.028 56.6569C35.838 56.6569 36.544 56.6459 37.185 56.6229C38.887 56.5619 40.323 56.5209 41.786 56.5209V56.5239ZM69.45 6.88886V7.44286C69.615 7.44286 69.791 7.43286 69.989 7.42586L69.45 6.88886Z" fill="#DEE4F5"/>
</g>
<path d="M31.538 16.1128H31.537C27.2535 16.1128 23.781 19.5853 23.781 23.8688V25.4538C23.781 29.7373 27.2535 33.2098 31.537 33.2098H31.538C35.8215 33.2098 39.294 29.7373 39.294 25.4538V23.8688C39.294 19.5853 35.8215 16.1128 31.538 16.1128Z" fill="#DEE4F5"/>
<path d="M31.573 33.4676C30.4473 33.4576 29.3348 33.2245 28.2998 32.7818C27.2648 32.3391 26.3278 31.6957 25.543 30.8886C24.7723 30.057 24.1922 29.0674 23.843 27.9886C23.789 27.8126 23.743 27.6306 23.704 27.4556C23.681 27.3556 23.658 27.2616 23.633 27.1666C23.5906 26.9852 23.5605 26.8011 23.543 26.6156C23.533 26.5216 23.522 26.4316 23.508 26.3316L23.473 25.4906V24.6956C23.473 24.1646 23.473 23.6146 23.522 23.0506C23.5289 22.8671 23.5551 22.6848 23.6 22.5066C23.62 22.4126 23.641 22.3156 23.655 22.2206L23.879 21.4116C24.2344 20.3521 24.8143 19.3817 25.579 18.5666C26.326 17.7409 27.2385 17.0816 28.257 16.6316C29.2797 16.1906 30.3785 15.9528 31.492 15.9316C32.6055 15.9335 33.7058 16.1721 34.72 16.6316C35.7417 17.0696 36.6654 17.7075 37.437 18.5076C38.1995 19.3266 38.779 20.2985 39.137 21.3586C39.208 21.5586 39.262 21.7726 39.315 21.9796C39.33 22.0406 39.346 22.1016 39.361 22.1606C39.4041 22.3421 39.4375 22.5257 39.461 22.7106C39.475 22.8026 39.489 22.8966 39.506 22.9896L39.555 23.8196V24.6316C39.565 25.1784 39.5439 25.7253 39.492 26.2696C39.47 26.4446 39.439 26.6216 39.41 26.7936C39.392 26.8936 39.375 26.9986 39.359 27.0996L39.159 27.8876C38.8289 28.9591 38.2669 29.9448 37.513 30.7746C37.3287 30.9833 37.1281 31.1769 36.913 31.3536C36.706 31.5412 36.4858 31.7137 36.254 31.8696C35.8104 32.2217 35.3291 32.5236 34.819 32.7696C33.7966 33.2234 32.6915 33.4611 31.573 33.4676ZM30.722 16.4316C30.4609 16.4551 30.2012 16.4925 29.944 16.5436C29.4382 16.6595 28.9454 16.826 28.473 17.0406C27.5158 17.4593 26.6605 18.0802 25.966 18.8606C25.308 19.663 24.7812 20.5645 24.405 21.5316C24.3179 21.7876 24.2454 22.0484 24.188 22.3126C24.1825 22.4686 24.1621 22.6236 24.127 22.7756C24.107 22.8756 24.086 22.9836 24.075 23.0866C24.025 23.5526 23.993 24.0606 23.975 24.6866C23.8668 25.742 23.9886 26.8084 24.332 27.8122C24.6753 28.816 25.2321 29.7336 25.964 30.5016C26.6392 31.2667 27.4697 31.8792 28.4001 32.2982C29.3306 32.7172 30.3396 32.9331 31.36 32.9316C31.4267 32.9316 31.4963 32.9316 31.569 32.9316V32.9176H31.573C32.619 32.9191 33.6529 32.6929 34.6026 32.2546C35.5524 31.8163 36.3954 31.1765 37.073 30.3796C37.7627 29.6066 38.2911 28.7036 38.627 27.7236C38.9318 26.7167 39.0577 25.6641 38.999 24.6136V23.0136C38.981 22.9026 38.966 22.7906 38.952 22.6816C38.933 22.5366 38.914 22.3876 38.886 22.2396C38.8315 21.9842 38.759 21.7329 38.669 21.4876C38.327 20.4954 37.7778 19.5874 37.058 18.8236C36.367 18.0353 35.5144 17.405 34.558 16.9756C33.6389 16.6153 32.6602 16.4308 31.673 16.4316H31.499H30.722Z" fill="#DEE4F5"/>
<path d="M51.795 24.6621H31.534V46.9881H51.795V24.6621Z" fill="white"/>
<path d="M40.112 47.2587C39.793 47.2587 39.512 47.2497 39.252 47.2307C38.86 47.2027 38.463 47.1887 38.037 47.1887C37.611 47.1887 37.173 47.2027 36.689 47.2307C36.309 47.2497 35.907 47.2587 35.459 47.2587C34.809 47.2587 34.147 47.2397 33.507 47.2207C32.867 47.2017 32.207 47.1827 31.562 47.1827C31.4953 47.1827 31.4314 47.1562 31.3842 47.1092C31.3369 47.0622 31.3103 46.9983 31.31 46.9317V44.1427C31.31 43.8337 31.319 43.5187 31.329 43.2147C31.3597 42.5948 31.3534 41.9737 31.31 41.3547C31.272 40.1177 31.285 38.8567 31.298 37.6377C31.304 37.0277 31.311 36.3967 31.311 35.7757V32.9867L31.373 31.5917C31.373 31.1327 31.373 30.6577 31.331 30.1977C31.331 29.5857 31.35 28.9627 31.368 28.3597C31.377 28.0477 31.385 27.7267 31.394 27.4087C31.408 26.7857 31.403 26.1567 31.394 25.5477C31.394 25.2427 31.394 24.9287 31.394 24.6197C31.3959 24.5851 31.4106 24.5525 31.4352 24.5281C31.4597 24.5038 31.4924 24.4893 31.527 24.4877H36.591C36.881 24.4977 37.18 24.5017 37.505 24.5017C38.249 24.5017 39.005 24.4767 39.737 24.4517C40.368 24.4307 41.02 24.4087 41.661 24.4037H46.732C47.21 24.4257 47.71 24.4357 48.259 24.4357C49.236 24.4357 50.229 24.4017 51.19 24.3687L51.795 24.3477H51.802C51.8775 24.3473 51.9503 24.3761 52.005 24.4281C52.0598 24.4801 52.0924 24.5512 52.096 24.6267C52.12 25.0797 52.106 25.5367 52.096 25.9787C52.082 26.4527 52.067 26.9417 52.096 27.4157C52.1528 28.3445 52.1528 29.2759 52.096 30.2047C52.0475 31.1337 52.0475 32.0646 52.096 32.9937L52.047 34.3877L52.026 35.9217C52.026 36.4137 52.006 36.9077 51.987 37.3857C51.97 37.8177 51.952 38.2647 51.948 38.7117C51.948 39.0627 51.948 39.4227 51.959 39.7707C51.971 40.3507 51.983 40.9507 51.948 41.5007L51.913 42.9007L51.948 44.3367C52.025 45.3267 52.025 46.2307 52.025 47.1877C51.457 47.1877 50.875 47.1877 50.311 47.1787C49.747 47.1697 49.163 47.1697 48.594 47.1697C47.957 47.1697 47.406 47.1757 46.912 47.1877C46.412 47.1657 45.893 47.1557 45.329 47.1557C44.411 47.1557 43.493 47.1847 42.606 47.2127H42.599L41.807 47.2367C41.526 47.2367 41.24 47.2437 40.963 47.2507C40.686 47.2577 40.397 47.2587 40.112 47.2587ZM46.591 46.6457C47.6538 46.7581 48.7224 46.8068 49.791 46.7917H50.429H51.069H51.6H51.628V42.6087L51.579 41.2147C51.537 40.5817 51.551 39.9977 51.565 39.3797C51.572 39.0707 51.579 38.7527 51.579 38.4257L51.479 35.6367C51.479 35.4157 51.5 35.1987 51.521 34.9897C51.5485 34.7557 51.5625 34.5203 51.563 34.2847C51.563 34.0197 51.546 33.7507 51.533 33.4907C51.523 33.2907 51.513 33.0907 51.507 32.8907C51.5572 31.962 51.5572 31.0313 51.507 30.1027C51.465 29.4807 51.479 28.8857 51.493 28.2557C51.5 27.9477 51.507 27.6307 51.507 27.3137C51.507 26.9967 51.501 26.6787 51.496 26.3717C51.487 25.8597 51.477 25.3307 51.496 24.8027H51.785L51.505 24.5237C51.5 24.6237 51.496 24.7237 51.493 24.8017C51.026 24.8017 50.554 24.7877 50.093 24.7777C49.547 24.7647 48.975 24.7477 48.413 24.7477C47.785 24.7477 47.229 24.7677 46.725 24.8017L45.456 24.8477H41.656C40.999 24.8477 40.326 24.8187 39.674 24.7877C39.022 24.7567 38.347 24.7257 37.685 24.7257C37.29 24.7257 36.932 24.7367 36.59 24.7597C35.617 24.8237 34.59 24.8597 33.444 24.8597C32.928 24.8547 32.385 24.8477 31.797 24.8357C31.797 24.7507 31.797 24.6597 31.797 24.5577L31.527 24.8297L31.797 24.8357C31.797 25.1027 31.781 25.3747 31.77 25.6357C31.737 26.2058 31.733 26.7772 31.758 27.3477C31.771 27.5717 31.788 27.7997 31.804 28.0197C31.8701 28.7226 31.8921 29.429 31.87 30.1347C31.8085 30.5974 31.7711 31.063 31.758 31.5297C31.758 31.8477 31.789 32.1747 31.818 32.4907C31.831 32.6337 31.845 32.7797 31.856 32.9237C31.8993 33.5414 31.9056 34.1612 31.875 34.7797C31.866 35.0857 31.856 35.4017 31.856 35.7137C31.839 36.4587 31.836 37.2137 31.832 37.9467C31.832 39.0467 31.822 40.1797 31.771 41.2917C31.749 41.7348 31.7506 42.1787 31.776 42.6217C31.8061 43.1079 31.8044 43.5956 31.771 44.0817C31.713 44.7347 31.713 45.4027 31.713 46.0477C31.713 46.2647 31.713 46.4797 31.713 46.6927H36.563C37.386 46.6927 38.237 46.6927 39.063 46.6437C39.31 46.6287 39.582 46.6217 39.893 46.6217C40.17 46.6217 40.453 46.6277 40.727 46.6327C41.001 46.6377 41.289 46.6437 41.57 46.6437C42.131 46.6437 42.704 46.6537 43.259 46.6637C43.814 46.6737 44.385 46.6837 44.941 46.6837C45.566 46.6857 46.106 46.6727 46.591 46.6477V46.6457Z" fill="white"/>
<path d="M55.527 34.4438L48.692 47.6918L63.854 47.2038L55.934 34.4228C55.9121 34.3875 55.8812 34.3587 55.8444 34.3394C55.8076 34.3202 55.7663 34.3112 55.7248 34.3133C55.6833 34.3154 55.6432 34.3287 55.6086 34.3516C55.5739 34.3746 55.5461 34.4064 55.528 34.4438H55.527Z" fill="#DEE4F5"/>
<path d="M49.267 48.0187C49.067 48.0187 48.876 48.0187 48.692 48.0057C48.6521 48.0038 48.613 47.994 48.5769 47.9769C48.5409 47.9597 48.5086 47.9355 48.482 47.9057C48.4288 47.8467 48.4011 47.769 48.405 47.6897C48.3943 47.644 48.3943 47.5964 48.405 47.5507C48.713 47.0257 49.032 46.4827 49.305 45.9187C49.468 45.5857 49.659 45.2597 49.844 44.9457C49.969 44.7337 50.097 44.5137 50.216 44.2947C50.591 43.6457 50.926 42.9547 51.25 42.2857C51.459 41.8527 51.676 41.4057 51.904 40.9697L52.724 39.3027L53.613 37.6507C53.969 36.8737 54.369 36.0877 54.755 35.3287C54.927 34.9967 55.097 34.6547 55.268 34.3187C55.3047 34.2406 55.3605 34.173 55.4303 34.1221C55.5 34.0713 55.5814 34.0388 55.667 34.0277C55.7539 34.0156 55.8424 34.0267 55.9237 34.0597C56.005 34.0927 56.0761 34.1465 56.13 34.2157C56.256 34.3957 56.312 34.4897 56.397 34.6327L56.41 34.6547L56.928 35.4787L57.964 37.1277C58.208 37.5277 58.464 37.9087 58.728 38.3087C58.828 38.4577 58.928 38.6087 59.028 38.7597C59.369 39.2757 59.709 39.8337 60.037 40.4197L62.037 43.7527C62.364 44.3337 62.696 44.8967 63.025 45.4257L64.075 47.0647C64.0953 47.0946 64.1092 47.1283 64.1159 47.1638C64.1227 47.1993 64.122 47.2359 64.114 47.2711C64.1061 47.3064 64.091 47.3396 64.0696 47.3688C64.0483 47.3979 64.0212 47.4224 63.99 47.4407C63.9513 47.4677 63.9052 47.4823 63.858 47.4827L61.958 47.5727C61.769 47.5897 61.558 47.5977 61.325 47.5977C61.114 47.5977 60.899 47.5917 60.691 47.5857C60.483 47.5797 60.269 47.5737 60.06 47.5737C59.585 47.5977 59.102 47.6327 58.634 47.6667C57.86 47.7227 57.061 47.7817 56.271 47.7897C55.671 47.7967 55.063 47.8177 54.471 47.8377C53.818 47.8607 53.143 47.8837 52.478 47.8877C51.957 47.8877 51.426 47.9227 50.913 47.9537C50.38 47.9857 49.819 48.0187 49.267 48.0187ZM55.688 34.5627L55.729 34.6277C55.5957 34.8843 55.4623 35.1413 55.329 35.3987C54.908 36.2127 54.473 37.0537 54.021 37.8697L53.237 39.5617L52.397 41.2217C51.929 42.0957 51.46 42.9867 51.008 43.8487C50.386 45.0277 49.744 46.2527 49.097 47.4467H48.663L48.894 47.8097L49.094 47.4467H49.265C50.282 47.4467 51.373 47.4397 52.46 47.3857C53.031 47.3577 53.609 47.3547 54.168 47.3517C54.851 47.3517 55.556 47.3447 56.249 47.2947C57.01 47.2407 57.786 47.2287 58.536 47.2177C59.028 47.2107 59.536 47.2027 60.036 47.1827C60.666 47.1587 61.308 47.1177 61.929 47.0827C62.418 47.0517 62.923 47.0197 63.419 46.9957L63.636 47.3337L63.825 46.9787L63.42 46.9967L61.535 44.0507C61.209 43.5377 60.898 43.0107 60.597 42.5007C60.252 41.9167 59.897 41.3137 59.519 40.7327C59.404 40.5487 59.288 40.3647 59.172 40.1817C58.943 39.8207 58.708 39.4507 58.49 39.0817C58.39 38.9057 58.283 38.7257 58.183 38.5517C57.965 38.1727 57.74 37.7807 57.496 37.4087L56.458 35.7617L55.934 34.9387L55.729 34.6277L55.74 34.6077L55.758 34.5697L55.688 34.5627Z" fill="#DEE4F5"/>
<path d="M73.527 75.31C81.0773 75.31 87.198 68.9166 87.198 61.03C87.198 53.1434 81.0773 46.75 73.527 46.75C65.9767 46.75 59.856 53.1434 59.856 61.03C59.856 68.9166 65.9767 75.31 73.527 75.31Z" fill="#DEE4F5" stroke="#DEE4F5" stroke-width="2" stroke-miterlimit="10" stroke-linecap="round" stroke-linejoin="round"/>
<path d="M73.526 53.8896V68.1696" stroke="white" stroke-width="3" stroke-miterlimit="10" stroke-linecap="round" stroke-linejoin="round"/>
<path d="M78.898 61.0296L73.527 53.8896L68.155 61.0296" stroke="white" stroke-width="3" stroke-miterlimit="10" stroke-linecap="round" stroke-linejoin="round"/>
</svg>
