<svg width="34" height="34" viewBox="0 0 34 34" fill="none" xmlns="http://www.w3.org/2000/svg">
<g clip-path="url(#clip0_9696_189047)">
<path d="M22.6001 29.5999V26.7999C22.6001 25.3147 22.0101 23.8904 20.9599 22.8402C19.9097 21.79 18.4853 21.2 17.0001 21.2H7.2001C5.71489 21.2 4.2905 21.79 3.2403 22.8402C2.1901 23.8904 1.6001 25.3147 1.6001 26.7999V29.5999" stroke="#27AE60" stroke-width="1.5" stroke-linecap="round" stroke-linejoin="round"/>
<path d="M24 15.6L26.8 18.4001L32.4 12.8" stroke="#27AE60" stroke-width="1.5" stroke-linecap="round" stroke-linejoin="round"/>
<path d="M12.1 15.5999C15.1928 15.5999 17.7 13.0927 17.7 9.9999C17.7 6.90711 15.1928 4.3999 12.1 4.3999C9.00721 4.3999 6.5 6.90711 6.5 9.9999C6.5 13.0927 9.00721 15.5999 12.1 15.5999Z" stroke="#27AE60" stroke-width="1.5" stroke-linecap="round" stroke-linejoin="round"/>
</g>
<defs>
<clipPath id="clip0_9696_189047">
<rect width="33.6" height="33.6" fill="white" transform="translate(0.200195 0.199951)"/>
</clipPath>
</defs>
</svg>
