<svg width="275" height="127" viewBox="0 0 275 127" fill="none" xmlns="http://www.w3.org/2000/svg">
<path opacity="0.4" d="M0.00380586 57.981C1.07072 62.9267 5.08837 66.8741 9.85924 68.3462C14.8017 69.8706 19.9892 68.3298 23.4529 64.5246C26.7942 60.85 28.3709 55.375 26.5442 50.6204C24.8352 46.1731 19.9614 42.309 15.0892 44.4559C10.9752 46.2695 8.57013 51.6449 10.3657 55.8439C12.1613 60.0429 17.1871 62.0836 21.5266 61.3157C27.0017 60.3452 30.0227 55.0253 31.5536 50.1613C33.4195 44.2696 33.694 37.4058 37.9878 32.5794C41.3731 28.7741 46.6472 26.9083 51.6844 27.2873C54.2086 27.4607 56.6498 28.2609 58.7868 29.6156C61.1052 31.1138 63.0904 33.6708 63.3616 36.4908C63.6638 39.6278 61.2572 41.8826 58.2362 42.1097C54.9145 42.3564 52.0112 40.3435 49.4901 38.4302C44.6768 34.7753 39.8847 30.0975 38.4011 24.0261C37.094 18.6491 38.5743 12.1823 43.6932 9.3312C49.4967 6.09943 56.4226 8.3999 61.5431 11.8261C64.3207 13.6854 66.8548 15.896 69.3856 18.0723C71.9589 20.2846 74.5192 22.5164 77.1971 24.6078C82.2751 28.565 87.8482 32.0173 94.1778 33.5058C100.115 34.9027 106.5 34.4861 111.76 31.1906C116.661 28.1287 120.12 23.1847 122.337 17.9269C125.115 11.3588 126.206 4.21886 127.536 -2.74138L131.804 -25.0664L133.85 -35.7715C133.894 -36.0019 133.541 -36.0983 133.495 -35.8695L129.278 -13.8124C127.907 -6.63651 126.693 0.590057 125.086 7.71695C123.653 14.0612 121.566 20.4251 117.437 25.5603C115.609 27.8347 113.415 29.8345 110.873 31.287C108.096 32.8463 104.991 33.7322 101.81 33.8734C87.9691 34.5841 77.3637 24.3333 67.5786 16.0447C62.9155 12.0973 57.7231 8.03882 51.4034 7.49638C48.6716 7.25947 45.8156 7.69244 43.4122 9.06325C41.2434 10.3261 39.5595 12.2781 38.6282 14.6086C36.5614 19.6376 37.6839 25.3022 40.5317 29.7757C42.128 32.2755 44.1833 34.4534 46.4054 36.3977C48.6765 38.3828 51.1714 40.4595 53.9571 41.6653C56.3295 42.6913 59.2524 42.925 61.4843 41.412C63.4776 40.0592 64.1083 37.6639 63.538 35.3978C62.2963 30.4619 57.2983 27.6108 52.5503 27.0079C47.8416 26.4116 42.8501 27.7889 39.2164 30.8671C34.5942 34.7884 33.4848 40.9088 32.1549 46.5048C30.8968 51.805 28.7744 58.3127 23.1883 60.4743C18.7262 62.2012 12.8133 60.3484 10.7709 55.8553C8.7041 51.3165 11.9146 45.1307 16.8636 44.3007C22.7945 43.304 27.0099 49.7839 26.9494 55.0204C26.889 60.2569 23.5183 65.3775 18.7442 67.5358C13.774 69.7791 7.89208 68.204 4.07865 64.4903C2.21641 62.7038 0.923784 60.4068 0.363255 57.8879C0.312605 57.6542 -0.0403083 57.7555 0.00380586 57.981Z" fill="#E95E2A" fill-opacity="0.65"/>
<path opacity="0.4" d="M169.004 116.981C170.071 121.927 174.088 125.874 178.859 127.346C183.802 128.871 188.989 127.33 192.453 123.525C195.794 119.85 197.371 114.375 195.544 109.62C193.835 105.173 188.961 101.309 184.089 103.456C179.975 105.269 177.57 110.645 179.366 114.844C181.161 119.043 186.187 121.084 190.527 120.316C196.002 119.345 199.023 114.025 200.554 109.161C202.419 103.27 202.694 96.4058 206.988 91.5794C210.373 87.7741 215.647 85.9083 220.684 86.2873C223.209 86.4607 225.65 87.2609 227.787 88.6156C230.105 90.1138 232.09 92.6708 232.362 95.4908C232.664 98.6278 230.257 100.883 227.236 101.11C223.915 101.356 221.011 99.3435 218.49 97.4302C213.677 93.7753 208.885 89.0975 207.401 83.0261C206.094 77.6491 207.574 71.1823 212.693 68.3312C218.497 65.0994 225.423 67.3999 230.543 70.8261C233.321 72.6854 235.855 74.896 238.386 77.0723C240.959 79.2846 243.519 81.5164 246.197 83.6078C251.275 87.565 256.848 91.0173 263.178 92.5058C269.115 93.9027 275.5 93.4861 280.76 90.1906C285.661 87.1287 289.12 82.1847 291.337 76.9269C294.115 70.3588 295.206 63.2189 296.536 56.2586L300.804 33.9336L302.85 23.2285C302.894 22.9981 302.541 22.9017 302.495 23.1305L298.278 45.1876C296.907 52.3635 295.693 59.5901 294.086 66.7169C292.653 73.0612 290.566 79.4251 286.437 84.5603C284.609 86.8347 282.415 88.8345 279.873 90.287C277.096 91.8463 273.991 92.7322 270.81 92.8734C256.969 93.5841 246.364 83.3333 236.579 75.0447C231.916 71.0973 226.723 67.0388 220.403 66.4964C217.672 66.2595 214.816 66.6924 212.412 68.0632C210.243 69.3261 208.559 71.2781 207.628 73.6086C205.561 78.6376 206.684 84.3022 209.532 88.7757C211.128 91.2755 213.183 93.4534 215.405 95.3977C217.676 97.3828 220.171 99.4595 222.957 100.665C225.329 101.691 228.252 101.925 230.484 100.412C232.478 99.0592 233.108 96.6639 232.538 94.3978C231.296 89.4619 226.298 86.6108 221.55 86.0079C216.842 85.4116 211.85 86.7889 208.216 89.8671C203.594 93.7884 202.485 99.9088 201.155 105.505C199.897 110.805 197.774 117.313 192.188 119.474C187.726 121.201 181.813 119.348 179.771 114.855C177.704 110.316 180.915 104.131 185.864 103.301C191.795 102.304 196.01 108.784 195.949 114.02C195.889 119.257 192.518 124.377 187.744 126.536C182.774 128.779 176.892 127.204 173.079 123.49C171.216 121.704 169.924 119.407 169.363 116.888C169.313 116.654 168.96 116.756 169.004 116.981Z" fill="#E95E2A" fill-opacity="0.65"/>
<g style="mix-blend-mode:soft-light" opacity="0.4">
<path d="M50.3514 113.93C55.0676 117.087 61.3879 117.76 66.575 115.356C71.1643 113.223 74.9578 108.6 74.7204 103.343C74.509 98.685 71.103 93.8287 66.2135 93.3366C61.8996 92.9019 57.2897 96.2924 56.8332 100.68C56.3691 105.127 60.338 108.414 64.3557 109.164C69.2365 110.084 73.6599 107.351 76.5669 103.603C80.4343 98.6288 81.6331 92.3574 83.4098 86.4625C85.0668 80.9618 87.6335 75.0459 92.8615 72.0582C98.2679 68.9635 104.927 70.5715 109.512 74.3884C111.835 76.3231 113.714 78.7561 115.196 81.3806C116.701 84.0416 117.826 86.9713 118.16 90.0271C118.772 95.6317 116.216 102.181 110.397 103.918C107.872 104.67 104.988 104.439 102.764 102.966C100.586 101.524 99.4113 99.0173 99.2759 96.453C99.1307 93.8555 100.005 91.3039 101.712 89.3412C103.5 87.3095 105.987 86.0012 108.604 85.3993C115.054 83.9182 121.421 86.9367 126.534 90.6424C131.441 94.1984 136.008 98.6439 142.053 100.17C144.507 100.791 147.138 100.931 149.586 100.21C152.099 99.4659 154.16 97.814 155.69 95.7054C159.521 90.4435 159.643 83.6065 162.549 77.9173C164.939 73.2421 168.914 69.4424 173.603 67.1068C175.949 65.9317 178.471 65.1466 181.07 64.7825C184.193 64.3562 187.367 64.8109 190.483 64.325C192.925 63.9428 195.513 62.7976 196.792 60.5712C198.301 57.9468 197.485 54.8067 196.979 52.0242C196.496 49.3801 196.344 46.0152 198.708 44.1868C198.895 44.0415 198.634 43.7805 198.451 43.9251C196.349 45.5523 196.135 48.4395 196.431 50.8936C196.798 53.9259 198.123 57.3103 196.565 60.2246C195.147 62.8854 191.973 63.8806 189.16 64.1175C186.184 64.3588 183.207 64.0423 180.247 64.5456C175.256 65.3909 170.573 67.8602 166.951 71.3802C165.131 73.1422 163.597 75.1762 162.402 77.4095C160.895 80.2428 160.097 83.3597 159.242 86.4341C157.677 92.0142 155.231 98.4781 148.95 99.997C143.147 101.394 137.477 98.3833 132.948 95.0663C127.746 91.2481 122.887 86.799 116.448 85.2089C111.349 83.9515 105.428 84.8303 101.703 88.8067C98.5888 92.1405 97.8145 97.6777 100.636 101.451C103.613 105.428 109.644 105.582 113.478 102.806C117.975 99.5469 119.311 93.5603 118.268 88.3374C117.164 82.8266 113.84 77.378 109.454 73.8695C105.188 70.4584 99.2192 68.8545 94.03 71.0685C89.1669 73.143 86.0972 77.9626 84.2796 82.7249C81.9408 88.8607 81.1604 95.609 77.7114 101.289C75.0746 105.634 70.5944 109.548 65.1859 108.922C60.761 108.41 56.1132 104.687 57.3642 99.7852C57.9658 97.431 59.8039 95.5166 61.9622 94.4876C64.2728 93.3559 66.9923 93.4328 69.2353 94.6933C71.5194 95.9786 73.1569 98.2593 73.9044 100.747C74.6839 103.37 74.4251 106.192 73.1814 108.629C70.5484 113.883 64.6515 116.722 58.9121 116.414C55.9214 116.248 53.0303 115.281 50.5407 113.616C50.3419 113.482 50.1554 113.799 50.3514 113.93Z" fill="#E95E2A" fill-opacity="0.65"/>
<path d="M50.3514 113.93C55.0676 117.087 61.3879 117.76 66.575 115.356C71.1643 113.223 74.9578 108.6 74.7204 103.343C74.509 98.685 71.103 93.8287 66.2135 93.3366C61.8996 92.9019 57.2897 96.2924 56.8332 100.68C56.3691 105.127 60.338 108.414 64.3557 109.164C69.2365 110.084 73.6599 107.351 76.5669 103.603C80.4343 98.6288 81.6331 92.3574 83.4098 86.4625C85.0668 80.9618 87.6335 75.0459 92.8615 72.0582C98.2679 68.9635 104.927 70.5715 109.512 74.3884C111.835 76.3231 113.714 78.7561 115.196 81.3806C116.701 84.0416 117.826 86.9713 118.16 90.0271C118.772 95.6317 116.216 102.181 110.397 103.918C107.872 104.67 104.988 104.439 102.764 102.966C100.586 101.524 99.4113 99.0173 99.2759 96.453C99.1307 93.8555 100.005 91.3039 101.712 89.3412C103.5 87.3095 105.987 86.0012 108.604 85.3993C115.054 83.9182 121.421 86.9367 126.534 90.6424C131.441 94.1984 136.008 98.6439 142.053 100.17C144.507 100.791 147.138 100.931 149.586 100.21C152.099 99.4659 154.16 97.814 155.69 95.7054C159.521 90.4435 159.643 83.6065 162.549 77.9173C164.939 73.2421 168.914 69.4424 173.603 67.1068C175.949 65.9317 178.471 65.1466 181.07 64.7825C184.193 64.3562 187.367 64.8109 190.483 64.325C192.925 63.9428 195.513 62.7976 196.792 60.5712C198.301 57.9468 197.485 54.8067 196.979 52.0242C196.496 49.3801 196.344 46.0152 198.708 44.1868C198.895 44.0415 198.634 43.7805 198.451 43.9251C196.349 45.5523 196.135 48.4395 196.431 50.8936C196.798 53.9259 198.123 57.3103 196.565 60.2246C195.147 62.8854 191.973 63.8806 189.16 64.1175C186.184 64.3588 183.207 64.0423 180.247 64.5456C175.256 65.3909 170.573 67.8602 166.951 71.3802C165.131 73.1422 163.597 75.1762 162.402 77.4095C160.895 80.2428 160.097 83.3597 159.242 86.4341C157.677 92.0142 155.231 98.4781 148.95 99.997C143.147 101.394 137.477 98.3833 132.948 95.0663C127.746 91.2481 122.887 86.799 116.448 85.2089C111.349 83.9515 105.428 84.8303 101.703 88.8067C98.5888 92.1405 97.8145 97.6777 100.636 101.451C103.613 105.428 109.644 105.582 113.478 102.806C117.975 99.5469 119.311 93.5603 118.268 88.3374C117.164 82.8266 113.84 77.378 109.454 73.8695C105.188 70.4584 99.2192 68.8545 94.03 71.0685C89.1669 73.143 86.0972 77.9626 84.2796 82.7249C81.9408 88.8607 81.1604 95.609 77.7114 101.289C75.0746 105.634 70.5944 109.548 65.1859 108.922C60.761 108.41 56.1132 104.687 57.3642 99.7852C57.9658 97.431 59.8039 95.5166 61.9622 94.4876C64.2728 93.3559 66.9923 93.4328 69.2353 94.6933C71.5194 95.9786 73.1569 98.2593 73.9044 100.747C74.6839 103.37 74.4251 106.192 73.1814 108.629C70.5484 113.883 64.6515 116.722 58.9121 116.414C55.9214 116.248 53.0303 115.281 50.5407 113.616C50.3419 113.482 50.1554 113.799 50.3514 113.93Z" stroke="black" stroke-width="0.229761"/>
</g>
<path opacity="0.4" d="M106.351 56.9301C111.068 60.0867 117.388 60.7602 122.575 58.3559C127.164 56.2234 130.958 51.6001 130.72 46.3434C130.509 41.685 127.103 36.8287 122.214 36.3366C117.9 35.9019 113.29 39.2924 112.833 43.68C112.369 48.1265 116.338 51.4141 120.356 52.1641C125.236 53.0842 129.66 50.3507 132.567 46.6029C136.434 41.6288 137.633 35.3574 139.41 29.4625C141.067 23.9618 143.634 18.0459 148.862 15.0582C154.268 11.9635 160.927 13.5715 165.512 17.3884C167.835 19.3231 169.714 21.7561 171.196 24.3806C172.701 27.0416 173.826 29.9713 174.16 33.0271C174.772 38.6317 172.216 45.1809 166.397 46.9177C163.872 47.6703 160.988 47.4387 158.764 45.9664C156.586 44.5236 155.411 42.0173 155.276 39.453C155.131 36.8555 156.005 34.3039 157.712 32.3412C159.5 30.3095 161.987 29.0012 164.604 28.3993C171.054 26.9182 177.421 29.9367 182.534 33.6424C187.441 37.1984 192.008 41.6439 198.053 43.1702C200.507 43.7906 203.138 43.931 205.586 43.21C208.099 42.4659 210.16 40.814 211.69 38.7054C215.521 33.4435 215.643 26.6065 218.549 20.9173C220.939 16.2421 224.914 12.4424 229.603 10.1068C231.949 8.93169 234.471 8.14662 237.07 7.78247C240.193 7.35617 243.367 7.81092 246.483 7.32501C248.925 6.94278 251.513 5.79758 252.792 3.57123C254.301 0.946825 253.485 -2.19331 252.979 -4.97583C252.496 -7.61991 252.344 -10.9848 254.708 -12.8132C254.895 -12.9585 254.634 -13.2195 254.451 -13.0749C252.349 -11.4477 252.135 -8.56051 252.431 -6.10644C252.798 -3.0741 254.123 0.31031 252.565 3.22457C251.147 5.88545 247.973 6.8806 245.16 7.11754C242.184 7.3588 239.207 7.04233 236.247 7.54556C231.256 8.39091 226.573 10.8602 222.951 14.3802C221.131 16.1422 219.597 18.1762 218.402 20.4095C216.895 23.2428 216.097 26.3597 215.242 29.4341C213.677 35.0142 211.231 41.4781 204.95 42.997C199.147 44.3945 193.477 41.3833 188.948 38.0663C183.746 34.2481 178.887 29.799 172.448 28.2089C167.349 26.9515 161.428 27.8303 157.703 31.8067C154.589 35.1405 153.814 40.6777 156.636 44.451C159.613 48.4279 165.644 48.5817 169.478 45.8055C173.975 42.5469 175.311 36.5603 174.268 31.3374C173.164 25.8266 169.84 20.378 165.454 16.8695C161.188 13.4584 155.219 11.8545 150.03 14.0685C145.167 16.143 142.097 20.9626 140.28 25.7249C137.941 31.8607 137.16 38.609 133.711 44.2887C131.075 48.6339 126.594 52.5476 121.186 51.922C116.761 51.4096 112.113 47.6873 113.364 42.7852C113.966 40.431 115.804 38.5166 117.962 37.4876C120.273 36.3559 122.992 36.4328 125.235 37.6933C127.519 38.9786 129.157 41.2593 129.904 43.7471C130.684 46.3698 130.425 49.192 129.181 51.6291C126.548 56.8833 120.651 59.7218 114.912 59.4139C111.921 59.2477 109.03 58.2814 106.541 56.616C106.342 56.482 106.155 56.7985 106.351 56.9301Z" fill="#E95E2A" fill-opacity="0.65"/>
</svg>
